<svg xmlns="http://www.w3.org/2000/svg" xmlns:xlink="http://www.w3.org/1999/xlink" width="478" zoomAndPan="magnify" viewBox="0 0 358.5 179.249993" height="239" preserveAspectRatio="xMidYMid meet" version="1.0"><defs><g/><clipPath id="245833dd87"><path d="M 0.496094 0 L 357.503906 0 L 357.503906 178.503906 L 0.496094 178.503906 Z M 0.496094 0 " clip-rule="nonzero"/></clipPath><clipPath id="ff547be254"><path d="M 94.203125 32 L 133 32 L 133 74 L 94.203125 74 Z M 94.203125 32 " clip-rule="nonzero"/></clipPath><clipPath id="57e9246be5"><path d="M 148 98 L 175 98 L 175 127.898438 L 148 127.898438 Z M 148 98 " clip-rule="nonzero"/></clipPath><clipPath id="ad39268f33"><path d="M 130 0.183594 L 235 0.183594 L 235 118 L 130 118 Z M 130 0.183594 " clip-rule="nonzero"/></clipPath></defs><g clip-path="url(#245833dd87)"><path fill="#ffffff" d="M 0.496094 0 L 357.503906 0 L 357.503906 178.503906 L 0.496094 178.503906 Z M 0.496094 0 " fill-opacity="1" fill-rule="nonzero"/></g><g clip-path="url(#ff547be254)"><path fill="#d4b34a" d="M 94.203125 32.964844 C 100.21875 45.894531 113.121094 53.820312 125.914062 58.910156 C 126.699219 64.28125 128.441406 69.59375 132.011719 73.753906 C 121.78125 72.09375 111.574219 67.90625 104.519531 60.089844 C 97.800781 52.753906 94.457031 42.800781 94.203125 32.964844 Z M 94.203125 32.964844 " fill-opacity="1" fill-rule="nonzero"/></g><path fill="#d4b34a" d="M 132.433594 61.046875 C 140.753906 63.15625 149.554688 64.363281 157.003906 68.917969 C 163.273438 72.628906 168.726562 77.800781 172.351562 84.125 C 164.652344 80.050781 155.484375 81.960938 147.613281 78.449219 C 139.914062 75.777344 134.121094 68.917969 132.433594 61.046875 Z M 132.433594 61.046875 " fill-opacity="1" fill-rule="nonzero"/><path fill="#d4b34a" d="M 103.957031 69.058594 C 112.726562 75.722656 123.046875 81.175781 134.289062 81.371094 C 135.300781 86.375 138.027344 90.984375 142.160156 94.050781 C 131.761719 93.207031 121.359375 89.550781 113.488281 82.550781 C 109.328125 78.871094 105.980469 74.230469 103.957031 69.058594 Z M 103.957031 69.058594 " fill-opacity="1" fill-rule="nonzero"/><g clip-path="url(#57e9246be5)"><path fill="#d4b34a" d="M 148.402344 98.746094 C 152.871094 101.246094 158.074219 100.433594 162.9375 99.925781 C 167.039062 99.417969 171.988281 100.65625 174.066406 104.535156 C 175.839844 108.164062 174.6875 112.378906 173.226562 115.894531 C 171.339844 120.25 168.753906 124.296875 165.632812 127.898438 C 167.238281 123.933594 170.132812 120.027344 169.203125 115.527344 C 168.304688 111.648438 164.171875 110.074219 160.769531 109.089844 C 155.402344 107.601562 150.761719 103.777344 148.402344 98.746094 Z M 148.402344 98.746094 " fill-opacity="1" fill-rule="nonzero"/></g><path fill="#d4b34a" d="M 128.695312 99.390625 C 133.726562 99.589844 138.789062 100.011719 143.792969 99.558594 C 145.167969 103.410156 147.753906 106.671875 150.902344 109.230469 C 142.808594 108.304688 134.402344 105.578125 128.695312 99.390625 Z M 128.695312 99.390625 " fill-opacity="1" fill-rule="nonzero"/><g clip-path="url(#ad39268f33)"><path fill="#d4b34a" d="M 234.566406 59.585938 L 220.480469 32.542969 C 221.238281 30.460938 222.28125 28.492188 223.179688 26.46875 C 221.71875 26.808594 220.226562 27.144531 218.765625 27.480469 C 219.414062 25.371094 220.367188 23.378906 221.378906 21.4375 C 217.332031 21.632812 213.988281 24.078125 211.203125 26.808594 C 198.246094 25.511719 185.03125 31.472656 176.90625 41.539062 C 178.230469 42.691406 179.691406 43.671875 181.097656 44.769531 C 186.4375 38.472656 193.746094 33.273438 202.125 32.34375 C 194.730469 35.183594 187.898438 40.414062 184.777344 47.890625 C 194.757812 57.390625 201.730469 71.28125 199.566406 85.28125 C 199.058594 82.132812 199.058594 78.898438 198.441406 75.777344 C 197.230469 69.03125 194.027344 62.789062 189.726562 57.503906 C 184.554688 51.265625 178.257812 46.121094 171.847656 41.226562 C 162.203125 33.890625 152.757812 26.246094 144.101562 17.753906 C 138.984375 12.527344 133.671875 7.128906 130.746094 0.269531 C 128.835938 13.285156 133.335938 27.480469 143.3125 36.253906 C 155.347656 42.070312 167.828125 47.523438 178.058594 56.296875 C 185.929688 62.734375 192.257812 71.644531 193.664062 81.90625 C 195.546875 94.695312 190.542969 107.347656 183.65625 117.890625 C 190.375 113.617188 196.671875 108.613281 202.152344 102.878906 C 208.28125 96.355469 213.507812 88.117188 213.453125 78.871094 C 203.613281 72.261719 199.820312 59.277344 201.589844 47.945312 C 202.320312 50 202.96875 52.304688 204.824219 53.597656 C 208.027344 56.042969 212.355469 55.394531 215.925781 56.914062 C 218.765625 58.6875 219.835938 62.113281 220.761719 65.152344 C 223.828125 65.433594 226.777344 66.304688 229.785156 66.839844 C 233.46875 67.230469 235.410156 62.566406 234.566406 59.585938 Z M 228.832031 58.066406 C 227.367188 54.101562 225.960938 50.113281 223.96875 46.371094 C 223.96875 46.371094 229.785156 55.394531 232.007812 60.007812 C 230.824219 59.640625 229.28125 59.445312 228.832031 58.066406 Z M 228.832031 58.066406 " fill-opacity="1" fill-rule="nonzero"/></g><path fill="#d4b34a" d="M 188.433594 80.726562 C 186.972656 72.347656 181.601562 65.234375 175.164062 59.949219 C 161.953125 48.816406 145.476562 42.886719 130.128906 35.378906 C 120.570312 30.714844 110.957031 25.570312 103.589844 17.726562 C 101.144531 15.195312 99.234375 12.246094 97.324219 9.347656 C 97.324219 9.347656 95.832031 14.492188 98.335938 22.28125 C 98.417969 22.589844 98.53125 22.871094 98.644531 23.179688 C 98.925781 23.996094 99.261719 24.839844 99.65625 25.710938 C 99.683594 25.765625 99.683594 25.824219 99.710938 25.878906 C 101.625 30.292969 104.292969 34.199219 107.5 37.601562 C 107.5 37.601562 107.527344 37.628906 107.527344 37.628906 C 114.273438 44.828125 123.355469 49.941406 132.40625 53.625 C 141.488281 57.503906 151.464844 58.882812 160.210938 63.578125 C 170.300781 68.582031 178.988281 77.660156 180.84375 89.101562 C 181.179688 89.046875 181.855469 88.933594 182.191406 88.90625 C 181.882812 88.988281 181.292969 89.128906 180.984375 89.1875 C 181.6875 94.726562 181.628906 100.375 180.421875 105.828125 C 179.324219 111.761719 176.90625 117.300781 174.882812 122.949219 C 177.246094 120.167969 179.15625 117.046875 181.011719 113.898438 C 186.664062 103.917969 190.652344 92.222656 188.433594 80.726562 Z M 188.433594 80.726562 " fill-opacity="1" fill-rule="nonzero"/><path fill="#d4b34a" d="M 176.851562 95.484375 C 175.894531 91.578125 172.859375 88.679688 169.234375 87.164062 C 168.726562 87.023438 168.222656 86.882812 167.6875 86.769531 C 166.957031 86.601562 166.167969 86.460938 165.355469 86.320312 C 163.21875 85.980469 160.828125 85.785156 158.214844 85.53125 C 158.15625 85.53125 158.074219 85.53125 158.015625 85.503906 C 151.945312 84.941406 145.84375 84.351562 140.222656 81.765625 C 143.03125 87.585938 147.953125 92.8125 154.417969 94.332031 C 161.839844 96.214844 169.710938 93.121094 176.964844 96.019531 C 176.9375 95.820312 176.90625 95.652344 176.851562 95.484375 Z M 176.851562 95.484375 " fill-opacity="1" fill-rule="nonzero"/><g fill="#d4b34a" fill-opacity="1"><g transform="translate(25.317128, 162.997258)"><g><path d="M 26.640625 -0.28125 L 27.078125 -0.28125 L 27.078125 0 L 18.640625 0 L 18.640625 -0.25 L 19.0625 -0.25 C 19.382812 -0.269531 19.65625 -0.398438 19.875 -0.640625 C 20.101562 -0.890625 20.203125 -1.164062 20.171875 -1.46875 L 19.0625 -11.671875 L 13.78125 -2.5625 C 13.082031 -1.394531 12.726562 -0.351562 12.71875 0.5625 L 12.4375 0.5625 L 5.203125 -11.59375 L 4.109375 -1.46875 C 4.066406 -1.164062 4.15625 -0.882812 4.375 -0.625 C 4.601562 -0.375 4.878906 -0.25 5.203125 -0.25 L 5.625 -0.25 L 5.625 0 L -0.25 0 L -0.25 -0.28125 L 0.203125 -0.28125 C 0.722656 -0.28125 1.175781 -0.4375 1.5625 -0.75 C 1.945312 -1.070312 2.175781 -1.503906 2.25 -2.046875 L 4.578125 -20.078125 L 4.84375 -20.078125 L 13.5625 -5.734375 L 21.9375 -20.078125 L 22.1875 -20.078125 L 24.578125 -2.046875 C 24.671875 -1.503906 24.910156 -1.070312 25.296875 -0.75 C 25.679688 -0.4375 26.128906 -0.28125 26.640625 -0.28125 Z M 26.640625 -0.28125 "/></g></g></g><g fill="#d4b34a" fill-opacity="1"><g transform="translate(60.544753, 162.997258)"><g><path d="M 20.765625 -0.28125 L 21.015625 -0.28125 L 21.015625 0 L 12.046875 0 L 12.046875 -0.28125 L 12.296875 -0.28125 C 12.703125 -0.28125 13.003906 -0.40625 13.203125 -0.65625 C 13.398438 -0.914062 13.5 -1.15625 13.5 -1.375 C 13.5 -1.601562 13.453125 -1.828125 13.359375 -2.046875 L 11.984375 -5.515625 L 5.40625 -5.515625 L 3.9375 -2.046875 C 3.84375 -1.804688 3.796875 -1.578125 3.796875 -1.359375 C 3.796875 -1.148438 3.898438 -0.914062 4.109375 -0.65625 C 4.316406 -0.40625 4.625 -0.28125 5.03125 -0.28125 L 5.265625 -0.28125 L 5.265625 0 L -0.75 0 L -0.75 -0.28125 L -0.5 -0.28125 C -0.0703125 -0.28125 0.351562 -0.410156 0.78125 -0.671875 C 1.21875 -0.929688 1.578125 -1.328125 1.859375 -1.859375 L 8.359375 -16.5625 C 9.234375 -18.414062 9.703125 -19.644531 9.765625 -20.25 L 10.015625 -20.25 L 18.375 -1.90625 C 18.65625 -1.363281 19.007812 -0.957031 19.4375 -0.6875 C 19.863281 -0.414062 20.304688 -0.28125 20.765625 -0.28125 Z M 5.875 -6.6875 L 11.5 -6.6875 L 8.78125 -13.609375 Z M 5.875 -6.6875 "/></g></g></g><g fill="#d4b34a" fill-opacity="1"><g transform="translate(89.109651, 162.997258)"><g><path d="M 12.0625 -0.28125 C 12.457031 -0.28125 12.78125 -0.46875 13.03125 -0.84375 C 13.132812 -1.050781 13.1875 -1.25 13.1875 -1.4375 C 13.1875 -1.625 13.132812 -1.8125 13.03125 -2 L 9.09375 -8.125 L 4.953125 -2.03125 C 4.835938 -1.84375 4.78125 -1.648438 4.78125 -1.453125 C 4.78125 -1.253906 4.835938 -1.0625 4.953125 -0.875 C 5.210938 -0.476562 5.539062 -0.28125 5.9375 -0.28125 L 6.296875 -0.28125 L 6.296875 0 L -0.640625 0 L -0.640625 -0.28125 L -0.25 -0.28125 C 0.800781 -0.28125 1.726562 -0.804688 2.53125 -1.859375 L 8.078125 -9.703125 L 2.875 -17.75 C 2.550781 -18.21875 2.132812 -18.609375 1.625 -18.921875 C 1.125 -19.242188 0.59375 -19.40625 0.03125 -19.40625 L -0.359375 -19.40625 L -0.359375 -19.6875 L 9.203125 -19.6875 L 9.203125 -19.40625 L 8.828125 -19.40625 C 8.441406 -19.40625 8.125 -19.21875 7.875 -18.84375 C 7.757812 -18.632812 7.703125 -18.429688 7.703125 -18.234375 C 7.703125 -18.035156 7.75 -17.851562 7.84375 -17.6875 L 11.359375 -12.265625 L 14.828125 -17.65625 C 14.941406 -17.84375 15 -18.035156 15 -18.234375 C 15 -18.429688 14.929688 -18.625 14.796875 -18.8125 C 14.554688 -19.207031 14.238281 -19.40625 13.84375 -19.40625 L 13.46875 -19.40625 L 13.46875 -19.6875 L 20.390625 -19.6875 L 20.390625 -19.40625 L 20 -19.40625 C 19.4375 -19.40625 18.910156 -19.25 18.421875 -18.9375 C 17.929688 -18.632812 17.519531 -18.25 17.1875 -17.78125 L 12.40625 -10.65625 L 18.0625 -1.90625 C 18.375 -1.4375 18.785156 -1.046875 19.296875 -0.734375 C 19.816406 -0.429688 20.351562 -0.28125 20.90625 -0.28125 L 21.296875 -0.28125 L 21.296875 0 L 11.703125 0 L 11.703125 -0.28125 Z M 12.0625 -0.28125 "/></g></g></g><g fill="#d4b34a" fill-opacity="1"><g transform="translate(118.040007, 162.997258)"><g><path d="M 26.640625 -0.28125 L 27.078125 -0.28125 L 27.078125 0 L 18.640625 0 L 18.640625 -0.25 L 19.0625 -0.25 C 19.382812 -0.269531 19.65625 -0.398438 19.875 -0.640625 C 20.101562 -0.890625 20.203125 -1.164062 20.171875 -1.46875 L 19.0625 -11.671875 L 13.78125 -2.5625 C 13.082031 -1.394531 12.726562 -0.351562 12.71875 0.5625 L 12.4375 0.5625 L 5.203125 -11.59375 L 4.109375 -1.46875 C 4.066406 -1.164062 4.15625 -0.882812 4.375 -0.625 C 4.601562 -0.375 4.878906 -0.25 5.203125 -0.25 L 5.625 -0.25 L 5.625 0 L -0.25 0 L -0.25 -0.28125 L 0.203125 -0.28125 C 0.722656 -0.28125 1.175781 -0.4375 1.5625 -0.75 C 1.945312 -1.070312 2.175781 -1.503906 2.25 -2.046875 L 4.578125 -20.078125 L 4.84375 -20.078125 L 13.5625 -5.734375 L 21.9375 -20.078125 L 22.1875 -20.078125 L 24.578125 -2.046875 C 24.671875 -1.503906 24.910156 -1.070312 25.296875 -0.75 C 25.679688 -0.4375 26.128906 -0.28125 26.640625 -0.28125 Z M 26.640625 -0.28125 "/></g></g></g><g fill="#d4b34a" fill-opacity="1"><g transform="translate(153.267635, 162.997258)"><g><path d="M 20.765625 -0.28125 L 21.015625 -0.28125 L 21.015625 0 L 12.046875 0 L 12.046875 -0.28125 L 12.296875 -0.28125 C 12.703125 -0.28125 13.003906 -0.40625 13.203125 -0.65625 C 13.398438 -0.914062 13.5 -1.15625 13.5 -1.375 C 13.5 -1.601562 13.453125 -1.828125 13.359375 -2.046875 L 11.984375 -5.515625 L 5.40625 -5.515625 L 3.9375 -2.046875 C 3.84375 -1.804688 3.796875 -1.578125 3.796875 -1.359375 C 3.796875 -1.148438 3.898438 -0.914062 4.109375 -0.65625 C 4.316406 -0.40625 4.625 -0.28125 5.03125 -0.28125 L 5.265625 -0.28125 L 5.265625 0 L -0.75 0 L -0.75 -0.28125 L -0.5 -0.28125 C -0.0703125 -0.28125 0.351562 -0.410156 0.78125 -0.671875 C 1.21875 -0.929688 1.578125 -1.328125 1.859375 -1.859375 L 8.359375 -16.5625 C 9.234375 -18.414062 9.703125 -19.644531 9.765625 -20.25 L 10.015625 -20.25 L 18.375 -1.90625 C 18.65625 -1.363281 19.007812 -0.957031 19.4375 -0.6875 C 19.863281 -0.414062 20.304688 -0.28125 20.765625 -0.28125 Z M 5.875 -6.6875 L 11.5 -6.6875 L 8.78125 -13.609375 Z M 5.875 -6.6875 "/></g></g></g><g fill="#d4b34a" fill-opacity="1"><g transform="translate(181.832535, 162.997258)"><g><path d="M 1.546875 -0.28125 C 2.035156 -0.28125 2.453125 -0.453125 2.796875 -0.796875 C 3.140625 -1.148438 3.320312 -1.566406 3.34375 -2.046875 L 3.34375 -17.65625 C 3.320312 -18.144531 3.140625 -18.554688 2.796875 -18.890625 C 2.453125 -19.234375 2.035156 -19.40625 1.546875 -19.40625 L 1.1875 -19.40625 L 1.1875 -19.6875 L 9.734375 -19.6875 L 9.703125 -19.40625 L 9.359375 -19.40625 C 8.878906 -19.40625 8.457031 -19.234375 8.09375 -18.890625 C 7.738281 -18.554688 7.5625 -18.144531 7.5625 -17.65625 L 7.5625 -2.046875 C 7.5625 -1.566406 7.738281 -1.148438 8.09375 -0.796875 C 8.457031 -0.453125 8.878906 -0.28125 9.359375 -0.28125 L 9.703125 -0.28125 L 9.734375 0 L 1.1875 0 L 1.1875 -0.28125 Z M 1.546875 -0.28125 "/></g></g></g><g fill="#d4b34a" fill-opacity="1"><g transform="translate(201.120214, 162.997258)"><g><path d="M 22.984375 -19.40625 C 22.328125 -19.40625 21.828125 -19.125 21.484375 -18.5625 C 21.335938 -18.320312 21.253906 -18.039062 21.234375 -17.71875 L 21.234375 -3.203125 C 21.234375 -1.953125 21.316406 -0.894531 21.484375 -0.03125 L 21.578125 0.390625 L 21.3125 0.390625 L 7.109375 -13.140625 L 7.109375 -1.96875 C 7.109375 -1.5 7.273438 -1.097656 7.609375 -0.765625 C 7.953125 -0.441406 8.359375 -0.28125 8.828125 -0.28125 L 9.359375 -0.28125 L 9.359375 0 L 0.84375 0 L 0.84375 -0.28125 L 1.34375 -0.28125 C 1.832031 -0.28125 2.242188 -0.441406 2.578125 -0.765625 C 2.921875 -1.097656 3.09375 -1.507812 3.09375 -2 L 3.09375 -16.59375 C 3.09375 -17.832031 3.007812 -18.863281 2.84375 -19.6875 L 2.78125 -20.109375 L 3.03125 -20.109375 L 17.234375 -6.578125 L 17.234375 -17.6875 C 17.222656 -18.175781 17.046875 -18.582031 16.703125 -18.90625 C 16.367188 -19.238281 15.96875 -19.40625 15.5 -19.40625 L 14.984375 -19.40625 L 14.984375 -19.6875 L 23.515625 -19.6875 L 23.515625 -19.40625 Z M 22.984375 -19.40625 "/></g></g></g><g fill="#d4b34a" fill-opacity="1"><g transform="translate(233.873909, 162.997258)"><g><path d="M 11.5 -18.53125 L 11.5 -2.03125 C 11.519531 -1.539062 11.703125 -1.125 12.046875 -0.78125 C 12.398438 -0.445312 12.816406 -0.28125 13.296875 -0.28125 L 13.640625 -0.28125 L 13.671875 0 L 5.125 0 L 5.125 -0.28125 L 5.484375 -0.28125 C 5.953125 -0.28125 6.359375 -0.445312 6.703125 -0.78125 C 7.054688 -1.125 7.25 -1.53125 7.28125 -2 L 7.28125 -18.53125 L 3.484375 -18.53125 C 2.617188 -18.507812 1.929688 -18.238281 1.421875 -17.71875 C 0.921875 -17.195312 0.671875 -16.515625 0.671875 -15.671875 L 0.671875 -15.328125 L 0.390625 -15.328125 L 0.390625 -20.21875 C 1.160156 -19.90625 2.269531 -19.738281 3.71875 -19.71875 L 15.046875 -19.71875 C 15.628906 -19.71875 16.257812 -19.769531 16.9375 -19.875 C 17.625 -19.988281 18.097656 -20.101562 18.359375 -20.21875 L 18.359375 -15.328125 L 18.078125 -15.328125 L 18.078125 -15.671875 C 18.078125 -16.828125 17.640625 -17.648438 16.765625 -18.140625 C 16.347656 -18.378906 15.847656 -18.507812 15.265625 -18.53125 Z M 11.5 -18.53125 "/></g></g></g><g fill="#d4b34a" fill-opacity="1"><g transform="translate(261.033166, 162.997258)"><g><path d="M 20.765625 -0.28125 L 21.015625 -0.28125 L 21.015625 0 L 12.046875 0 L 12.046875 -0.28125 L 12.296875 -0.28125 C 12.703125 -0.28125 13.003906 -0.40625 13.203125 -0.65625 C 13.398438 -0.914062 13.5 -1.15625 13.5 -1.375 C 13.5 -1.601562 13.453125 -1.828125 13.359375 -2.046875 L 11.984375 -5.515625 L 5.40625 -5.515625 L 3.9375 -2.046875 C 3.84375 -1.804688 3.796875 -1.578125 3.796875 -1.359375 C 3.796875 -1.148438 3.898438 -0.914062 4.109375 -0.65625 C 4.316406 -0.40625 4.625 -0.28125 5.03125 -0.28125 L 5.265625 -0.28125 L 5.265625 0 L -0.75 0 L -0.75 -0.28125 L -0.5 -0.28125 C -0.0703125 -0.28125 0.351562 -0.410156 0.78125 -0.671875 C 1.21875 -0.929688 1.578125 -1.328125 1.859375 -1.859375 L 8.359375 -16.5625 C 9.234375 -18.414062 9.703125 -19.644531 9.765625 -20.25 L 10.015625 -20.25 L 18.375 -1.90625 C 18.65625 -1.363281 19.007812 -0.957031 19.4375 -0.6875 C 19.863281 -0.414062 20.304688 -0.28125 20.765625 -0.28125 Z M 5.875 -6.6875 L 11.5 -6.6875 L 8.78125 -13.609375 Z M 5.875 -6.6875 "/></g></g></g><g fill="#d4b34a" fill-opacity="1"><g transform="translate(289.598055, 162.997258)"><g><path d="M 1.546875 -0.28125 C 2.035156 -0.28125 2.453125 -0.453125 2.796875 -0.796875 C 3.140625 -1.148438 3.320312 -1.566406 3.34375 -2.046875 L 3.34375 -17.65625 C 3.320312 -18.144531 3.140625 -18.554688 2.796875 -18.890625 C 2.453125 -19.234375 2.035156 -19.40625 1.546875 -19.40625 L 1.1875 -19.40625 L 1.1875 -19.6875 L 9.734375 -19.6875 L 9.703125 -19.40625 L 9.359375 -19.40625 C 8.878906 -19.40625 8.457031 -19.234375 8.09375 -18.890625 C 7.738281 -18.554688 7.5625 -18.144531 7.5625 -17.65625 L 7.5625 -2.046875 C 7.5625 -1.566406 7.738281 -1.148438 8.09375 -0.796875 C 8.457031 -0.453125 8.878906 -0.28125 9.359375 -0.28125 L 9.703125 -0.28125 L 9.734375 0 L 1.1875 0 L 1.1875 -0.28125 Z M 1.546875 -0.28125 "/></g></g></g><g fill="#d4b34a" fill-opacity="1"><g transform="translate(308.885722, 162.997258)"><g><path d="M 22.984375 -19.40625 C 22.328125 -19.40625 21.828125 -19.125 21.484375 -18.5625 C 21.335938 -18.320312 21.253906 -18.039062 21.234375 -17.71875 L 21.234375 -3.203125 C 21.234375 -1.953125 21.316406 -0.894531 21.484375 -0.03125 L 21.578125 0.390625 L 21.3125 0.390625 L 7.109375 -13.140625 L 7.109375 -1.96875 C 7.109375 -1.5 7.273438 -1.097656 7.609375 -0.765625 C 7.953125 -0.441406 8.359375 -0.28125 8.828125 -0.28125 L 9.359375 -0.28125 L 9.359375 0 L 0.84375 0 L 0.84375 -0.28125 L 1.34375 -0.28125 C 1.832031 -0.28125 2.242188 -0.441406 2.578125 -0.765625 C 2.921875 -1.097656 3.09375 -1.507812 3.09375 -2 L 3.09375 -16.59375 C 3.09375 -17.832031 3.007812 -18.863281 2.84375 -19.6875 L 2.78125 -20.109375 L 3.03125 -20.109375 L 17.234375 -6.578125 L 17.234375 -17.6875 C 17.222656 -18.175781 17.046875 -18.582031 16.703125 -18.90625 C 16.367188 -19.238281 15.96875 -19.40625 15.5 -19.40625 L 14.984375 -19.40625 L 14.984375 -19.6875 L 23.515625 -19.6875 L 23.515625 -19.40625 Z M 22.984375 -19.40625 "/></g></g></g></svg>